<svg width="110" height="110" viewBox="0 0 110 110" fill="none" xmlns="http://www.w3.org/2000/svg">
<g filter="url(#filter0_d_2_20)">
<path fill-rule="evenodd" clip-rule="evenodd" d="M93.3109 75C84.6656 89.945 68.507 100 50 100C22.3858 100 0 77.6142 0 50C0 22.3858 22.3858 0 50 0C71.6455 0 90.0786 13.7544 97.0358 33H13C10.2386 33 8 35.2386 8 38C8 40.7614 10.2386 43 13 43H99.5139C99.7892 44.9657 99.9503 46.968 99.9902 49H13C10.2386 49 8 51.2386 8 54C8 56.7614 10.2386 59 13 59H99.1922C98.8203 61.0461 98.3238 63.0488 97.711 65H13C10.2386 65 8 67.2386 8 70C8 72.7614 10.2386 75 13 75H93.3109ZM60.5263 25.5L51 9L41.4737 25.5H60.5263Z" fill="#D65382"/>
</g>
<defs>
<filter id="filter0_d_2_20" x="0" y="0" width="109.99" height="110" filterUnits="userSpaceOnUse" color-interpolation-filters="sRGB">
<feFlood flood-opacity="0" result="BackgroundImageFix"/>
<feColorMatrix in="SourceAlpha" type="matrix" values="0 0 0 0 0 0 0 0 0 0 0 0 0 0 0 0 0 0 127 0" result="hardAlpha"/>
<feOffset dx="6" dy="6"/>
<feGaussianBlur stdDeviation="2"/>
<feComposite in2="hardAlpha" operator="out"/>
<feColorMatrix type="matrix" values="0 0 0 0 0.501961 0 0 0 0 0.317647 0 0 0 0 0.615686 0 0 0 0.5 0"/>
<feBlend mode="normal" in2="BackgroundImageFix" result="effect1_dropShadow_2_20"/>
<feBlend mode="normal" in="SourceGraphic" in2="effect1_dropShadow_2_20" result="shape"/>
</filter>
</defs>
</svg>
